<svg version="1.1" id="Layer_1" xmlns="http://www.w3.org/2000/svg" xmlns:xlink="http://www.w3.org/1999/xlink" x="0px" y="0px"
	 viewBox="0 0 29.7 6.41" style="enable-background:new 0 0 29.7 6.41;" xml:space="preserve">
<style type="text/css">
	.st0{fill-rule:evenodd;clip-rule:evenodd;fill:#252424;}
	.st1{fill:url(#SVGID_1_);}
</style>
<g>
	<g>
		<path class="st0" d="M5.87,2.48c0-0.52-0.42-0.94-0.94-0.94c-0.31,0-0.57,0.16-0.74,0.4C4.05,1.74,3.84,1.61,3.6,1.57
			C3.57,1.3,3.41,0.55,2.38,0.43c0,0-0.27,0.01-0.26,0.19c0.01,0.18,0.13,0.18,0.26,0.19C2.5,0.83,3.12,0.99,3.2,1.59
			C2.99,1.64,2.82,1.76,2.7,1.93c-0.17-0.23-0.43-0.4-0.74-0.4c-0.52,0-0.94,0.42-0.94,0.94c0,0.49,0.38,0.88,0.86,0.92
			C1.82,3.51,1.79,3.64,1.79,3.77c0,0.47,0.35,0.84,0.8,0.91C2.54,4.8,2.5,4.93,2.5,5.07c0,0.52,0.42,0.94,0.94,0.94
			s0.94-0.42,0.94-0.94c0-0.13-0.03-0.26-0.08-0.37c0.48-0.04,0.86-0.43,0.86-0.92c0-0.14-0.03-0.27-0.09-0.38
			C5.52,3.32,5.87,2.95,5.87,2.48z M3.44,1.93c0.3,0,0.55,0.25,0.55,0.55c0,0.3-0.25,0.55-0.55,0.55c-0.3,0-0.55-0.25-0.55-0.55
			C2.89,2.17,3.14,1.93,3.44,1.93z M1.4,2.48c0-0.3,0.25-0.55,0.55-0.55S2.5,2.17,2.5,2.48c0,0.3-0.25,0.55-0.55,0.55
			S1.4,2.78,1.4,2.48z M2.18,3.77c0-0.3,0.25-0.55,0.55-0.55c0.3,0,0.55,0.25,0.55,0.55S3.04,4.32,2.73,4.32
			C2.43,4.32,2.18,4.08,2.18,3.77z M3.44,5.62c-0.3,0-0.55-0.25-0.55-0.55c0-0.3,0.25-0.55,0.55-0.55c0.3,0,0.55,0.25,0.55,0.55
			C3.99,5.37,3.75,5.62,3.44,5.62z M4.22,4.32c-0.3,0-0.55-0.25-0.55-0.55s0.25-0.55,0.55-0.55c0.3,0,0.55,0.25,0.55,0.55
			S4.52,4.32,4.22,4.32z M4.93,3.03c-0.3,0-0.55-0.25-0.55-0.55c0-0.3,0.25-0.55,0.55-0.55c0.3,0,0.55,0.25,0.55,0.55
			C5.48,2.78,5.24,3.03,4.93,3.03z"/>
	</g>
</g>
<g>
	<path d="M8.43,3.92v0.75H7.91V2.53h0.84c0.26,0,0.45,0.06,0.58,0.19s0.2,0.3,0.2,0.51c0,0.13-0.03,0.25-0.09,0.36
		C9.39,3.69,9.3,3.77,9.18,3.83C9.06,3.89,8.92,3.92,8.75,3.92H8.43z M9.01,3.23c0-0.19-0.1-0.28-0.31-0.28H8.43v0.56H8.7
		C8.9,3.51,9.01,3.41,9.01,3.23z"/>
	<path d="M10.5,3.05c0.1-0.06,0.21-0.09,0.33-0.09v0.56h-0.15c-0.14,0-0.24,0.03-0.32,0.09c-0.08,0.06-0.11,0.16-0.11,0.3v0.77H9.73
		V2.98h0.52V3.3C10.31,3.2,10.39,3.11,10.5,3.05z"/>
	<path d="M12.26,3.06c0.13,0.07,0.24,0.17,0.31,0.3c0.08,0.13,0.11,0.29,0.11,0.46c0,0.18-0.04,0.33-0.11,0.46
		c-0.08,0.13-0.18,0.23-0.31,0.3c-0.13,0.07-0.28,0.1-0.45,0.1c-0.17,0-0.32-0.04-0.45-0.1c-0.13-0.07-0.24-0.17-0.31-0.3
		C10.96,4.16,10.92,4,10.92,3.83c0-0.18,0.04-0.33,0.11-0.46c0.08-0.13,0.18-0.23,0.31-0.3c0.13-0.07,0.28-0.1,0.45-0.1
		C11.97,2.96,12.12,2.99,12.26,3.06z M11.55,3.52c-0.07,0.07-0.1,0.18-0.1,0.31c0,0.14,0.03,0.24,0.1,0.31
		c0.07,0.07,0.15,0.11,0.25,0.11c0.1,0,0.18-0.04,0.25-0.11c0.07-0.07,0.1-0.17,0.1-0.31c0-0.14-0.03-0.24-0.1-0.31
		c-0.07-0.07-0.15-0.11-0.25-0.11C11.71,3.41,11.62,3.44,11.55,3.52z"/>
	<path d="M13.89,3.05c0.09,0.06,0.16,0.14,0.2,0.24V2.43h0.52v2.25H14.1V4.37c-0.04,0.1-0.11,0.18-0.2,0.24
		c-0.09,0.06-0.2,0.09-0.33,0.09c-0.14,0-0.26-0.04-0.37-0.1c-0.11-0.07-0.2-0.17-0.26-0.3c-0.06-0.13-0.1-0.29-0.1-0.46
		c0-0.18,0.03-0.33,0.1-0.46c0.06-0.13,0.15-0.23,0.26-0.3c0.11-0.07,0.24-0.1,0.37-0.1C13.69,2.96,13.8,2.99,13.89,3.05z
		 M13.46,3.52c-0.07,0.07-0.1,0.17-0.1,0.3c0,0.13,0.03,0.23,0.1,0.3c0.07,0.07,0.16,0.11,0.27,0.11c0.11,0,0.2-0.04,0.27-0.11
		c0.07-0.07,0.1-0.17,0.1-0.3c0-0.13-0.04-0.23-0.1-0.3c-0.07-0.07-0.16-0.11-0.27-0.11C13.62,3.41,13.53,3.45,13.46,3.52z"/>
	<path d="M16.62,2.98v1.69H16.1V4.37c-0.05,0.1-0.12,0.18-0.22,0.24c-0.1,0.06-0.21,0.09-0.34,0.09c-0.19,0-0.35-0.06-0.46-0.19
		c-0.11-0.13-0.17-0.31-0.17-0.53V2.98h0.52V3.9c0,0.12,0.03,0.2,0.09,0.27s0.14,0.1,0.24,0.1c0.11,0,0.19-0.03,0.25-0.1
		C16.07,4.1,16.1,4,16.1,3.88v-0.9H16.62z"/>
	<path d="M18.26,3.14c0.15,0.12,0.24,0.29,0.28,0.5h-0.55c-0.02-0.07-0.05-0.13-0.1-0.17c-0.05-0.04-0.11-0.06-0.19-0.06
		c-0.09,0-0.17,0.04-0.22,0.11c-0.06,0.07-0.09,0.18-0.09,0.31c0,0.14,0.03,0.24,0.09,0.31c0.06,0.07,0.13,0.11,0.22,0.11
		c0.08,0,0.14-0.02,0.19-0.06c0.05-0.04,0.08-0.1,0.1-0.17h0.55c-0.04,0.21-0.13,0.38-0.28,0.5c-0.15,0.12-0.33,0.18-0.55,0.18
		c-0.17,0-0.31-0.04-0.44-0.1c-0.13-0.07-0.23-0.17-0.3-0.3C16.89,4.16,16.86,4,16.86,3.83c0-0.18,0.04-0.33,0.11-0.46
		c0.07-0.13,0.17-0.23,0.3-0.3c0.13-0.07,0.28-0.1,0.44-0.1C17.93,2.96,18.11,3.02,18.26,3.14z"/>
	<path d="M19.72,4.23v0.45h-0.23c-0.2,0-0.35-0.05-0.46-0.15c-0.11-0.1-0.16-0.26-0.16-0.49V3.42h-0.23V2.98h0.23V2.57h0.52v0.42
		h0.34v0.44h-0.34v0.63c0,0.07,0.01,0.11,0.04,0.14c0.03,0.03,0.07,0.04,0.14,0.04H19.72z"/>
</g>
<linearGradient id="SVGID_1_" gradientUnits="userSpaceOnUse" x1="20.6845" y1="3.4635" x2="28.9736" y2="3.4635">
	<stop  offset="2.886001e-03" style="stop-color:#FF8B27"/>
	<stop  offset="1" style="stop-color:#FF4708"/>
</linearGradient>
<path class="st1" d="M22.08,2.53v0.41H21.2v0.47h0.68v0.39H21.2v0.87h-0.52V2.53H22.08z M23.04,3.05c0.1-0.06,0.21-0.09,0.33-0.09
	v0.56h-0.15c-0.14,0-0.24,0.03-0.32,0.09c-0.08,0.06-0.11,0.16-0.11,0.3v0.77h-0.52V2.98h0.52V3.3C22.85,3.2,22.94,3.11,23.04,3.05z
	 M25.23,2.98v1.69H24.7V4.37c-0.05,0.1-0.12,0.18-0.22,0.24c-0.1,0.06-0.21,0.09-0.34,0.09c-0.19,0-0.35-0.06-0.46-0.19
	c-0.11-0.13-0.17-0.31-0.17-0.53V2.98h0.52V3.9c0,0.12,0.03,0.2,0.09,0.27s0.14,0.1,0.24,0.1c0.11,0,0.19-0.03,0.25-0.1
	C24.67,4.1,24.7,4,24.7,3.88v-0.9H25.23z M25.58,2.31c0.06-0.05,0.13-0.08,0.22-0.08s0.17,0.03,0.22,0.08
	c0.06,0.05,0.08,0.12,0.08,0.2c0,0.08-0.03,0.14-0.08,0.19c-0.06,0.05-0.13,0.08-0.22,0.08s-0.17-0.03-0.22-0.08
	C25.53,2.65,25.5,2.58,25.5,2.5C25.5,2.43,25.53,2.36,25.58,2.31z M26.06,2.98v1.69h-0.52V2.98H26.06z M27.33,4.23v0.45H27.1
	c-0.2,0-0.35-0.05-0.46-0.15c-0.11-0.1-0.16-0.26-0.16-0.49V3.42h-0.23V2.98h0.23V2.57h0.52v0.42h0.34v0.44h-0.34v0.63
	c0,0.07,0.01,0.11,0.04,0.14c0.03,0.03,0.07,0.04,0.14,0.04H27.33z M28.71,3.12c0.13,0.11,0.21,0.25,0.24,0.42h-0.49
	c-0.01-0.07-0.05-0.12-0.1-0.16c-0.05-0.04-0.11-0.06-0.19-0.06c-0.06,0-0.1,0.01-0.13,0.04C28.02,3.39,28,3.42,28,3.47
	c0,0.05,0.03,0.09,0.08,0.12c0.06,0.03,0.14,0.05,0.26,0.08c0.13,0.03,0.24,0.06,0.32,0.09c0.08,0.03,0.15,0.08,0.22,0.15
	c0.06,0.07,0.09,0.17,0.09,0.29c0,0.1-0.03,0.18-0.08,0.26c-0.05,0.07-0.13,0.13-0.23,0.18S28.45,4.7,28.32,4.7
	c-0.23,0-0.41-0.05-0.55-0.15s-0.22-0.25-0.25-0.43h0.5c0.01,0.07,0.04,0.13,0.09,0.17s0.12,0.06,0.21,0.06
	c0.06,0,0.1-0.01,0.13-0.04c0.03-0.03,0.05-0.06,0.05-0.11c0-0.06-0.03-0.1-0.08-0.13s-0.15-0.05-0.27-0.08
	c-0.13-0.03-0.23-0.05-0.31-0.09c-0.08-0.03-0.15-0.08-0.21-0.15c-0.06-0.07-0.09-0.16-0.09-0.28c0-0.15,0.06-0.27,0.17-0.37
	s0.28-0.14,0.49-0.14C28.41,2.96,28.58,3.01,28.71,3.12z"/>
</svg>